<svg viewBox="0 0 100 100" xmlns="http://www.w3.org/2000/svg">
  <!-- Background circle (optional) -->
  <circle cx="50" cy="50" r="48" fill="#ffffff" />
  
  <!-- Main stem -->
  <path d="M50 85 L50 40" stroke="#2D5016" stroke-width="4" fill="none" />
  
  <!-- Left leaves - gradient from light to dark green -->
  <ellipse cx="35" cy="45" rx="12" ry="8" fill="#9FD356" transform="rotate(-30 35 45)" />
  <ellipse cx="30" cy="55" rx="14" ry="9" fill="#7BC043" transform="rotate(-35 30 55)" />
  <ellipse cx="28" cy="68" rx="15" ry="10" fill="#6BBF3B" transform="rotate(-40 28 68)" />
  
  <!-- Right leaves -->
  <ellipse cx="65" cy="45" rx="12" ry="8" fill="#7BC043" transform="rotate(30 65 45)" />
  <ellipse cx="70" cy="55" rx="14" ry="9" fill="#6BBF3B" transform="rotate(35 70 55)" />
  <ellipse cx="72" cy="68" rx="15" ry="10" fill="#4A9D2A" transform="rotate(40 72 68)" />
  
  <!-- Top leaf/seed -->
  <ellipse cx="50" cy="35" rx="8" ry="12" fill="#9FD356" />
  
  <!-- Root/base -->
  <path d="M45 85 Q40 90, 35 88 M55 85 Q60 90, 65 88" stroke="#2D5016" stroke-width="3" fill="none" />
</svg>
